<?xml version="1.0" encoding="utf-8"?>
<!-- Generator: Adobe Illustrator 24.3.0, SVG Export Plug-In . SVG Version: 6.00 Build 0)  -->
<svg version="1.1" xmlns="http://www.w3.org/2000/svg" xmlns:xlink="http://www.w3.org/1999/xlink" x="0px" y="0px"
	 viewBox="0 0 1921.11 1080" style="enable-background:new 0 0 1921.11 1080;" xml:space="preserve">
<style type="text/css">
	.st0{fill:#FFFFFF;stroke:#FFFFFF;stroke-width:9;stroke-miterlimit:10;}
	.st1{fill:#E20613;stroke:#1D1D1B;stroke-width:3;stroke-miterlimit:10;}
	.st2{fill:#FFFFFF;}
	.st3{fill:#1D1D1B;}
	.st4{fill:#FFFFFF;stroke:#FFFFFF;stroke-width:0.25;stroke-miterlimit:10;}
	.st5{fill:none;}
	.st6{fill:#FFFFFF;stroke:#FFFFFF;stroke-miterlimit:10;}
</style>
<g id="fondo">
</g>
<g id="imagen">
	<path class="st0" d="M1063.13,540H857.98c-18.15,0-33-14.85-33-33V167.04c0-18.15,14.85-33,33-33h205.15c18.15,0,33,14.85,33,33
		V507C1096.13,525.15,1081.28,540,1063.13,540z"/>
	<g>
		<path d="M877.06,187.21c-0.09,0.5-0.19,0.8-0.29,0.89c-0.09,0.07-0.3,0.06-0.63-0.06c-2.13-0.48-5.24-0.54-9.34-0.17
			c-0.77,0.07-1.2-0.11-1.27-0.56c-0.07-0.52,0.17-0.92,0.74-1.2c1.61-0.82,2.41-1.58,2.41-2.29c0-0.28-0.09-0.68-0.27-1.2
			c-1.1-3.29-2.02-5.95-2.75-7.96c-1.06,0.07-2.92,0.11-5.59,0.11c-2.21,0-4.08-0.07-5.63-0.22c-0.52,1.6-1.25,3.83-2.19,6.7
			c-0.21,0.65-0.31,1.24-0.31,1.76c0,1.04,0.45,1.81,1.36,2.29c1.4,0.74,2.09,1.31,2.06,1.7c-0.03,0.63-0.5,0.88-1.41,0.75
			c-2.8-0.37-5.39-0.26-7.78,0.33c-0.63,0.17-0.98-0.11-1.05-0.84c-0.06-0.48,0.42-1.01,1.45-1.56c1.1-0.58,2.03-1.91,2.79-3.99
			c2.9-7.87,4.78-13.05,5.63-15.52c2.06-5.94,3.51-10.79,4.36-14.55c0.12-0.58,0.71-1.12,1.77-1.62c0.25-0.11,0.57,0.43,0.96,1.62
			c3.22,9.68,6.82,20.03,10.81,31.05c0.64,1.75,1.72,2.91,3.24,3.49C876.83,186.42,877.14,186.77,877.06,187.21z M864.93,172.5
			c-0.98-2.79-2.52-7.12-4.6-12.98c-0.12-0.32-0.25-0.47-0.4-0.47s-0.28,0.16-0.38,0.47l-4.27,12.87c1.59,0.15,3.38,0.22,5.36,0.22
			C861.86,172.61,863.29,172.57,864.93,172.5z"/>
	</g>
	<g>
		<path d="M1040.6,479.38c0.09-0.5,0.19-0.8,0.29-0.89c0.09-0.07,0.3-0.06,0.63,0.06c2.13,0.48,5.24,0.54,9.34,0.17
			c0.77-0.07,1.2,0.11,1.27,0.56c0.07,0.52-0.17,0.92-0.74,1.2c-1.61,0.82-2.41,1.58-2.41,2.29c0,0.28,0.09,0.68,0.27,1.2
			c1.1,3.29,2.02,5.95,2.75,7.96c1.06-0.07,2.92-0.11,5.59-0.11c2.21,0,4.08,0.07,5.63,0.22c0.52-1.6,1.25-3.83,2.19-6.7
			c0.21-0.65,0.31-1.24,0.31-1.76c0-1.04-0.45-1.81-1.36-2.29c-1.4-0.74-2.09-1.31-2.06-1.7c0.03-0.63,0.5-0.88,1.41-0.75
			c2.8,0.37,5.39,0.26,7.78-0.33c0.63-0.17,0.98,0.11,1.05,0.84c0.06,0.48-0.42,1.01-1.45,1.56c-1.1,0.58-2.03,1.91-2.79,3.99
			c-2.9,7.87-4.78,13.05-5.63,15.52c-2.05,5.94-3.51,10.79-4.36,14.55c-0.12,0.58-0.71,1.12-1.76,1.62
			c-0.25,0.11-0.57-0.43-0.96-1.62c-3.22-9.68-6.82-20.03-10.81-31.05c-0.64-1.75-1.72-2.91-3.24-3.49
			C1040.83,480.17,1040.53,479.82,1040.6,479.38z M1052.73,494.09c0.98,2.79,2.52,7.12,4.6,12.98c0.12,0.32,0.25,0.47,0.4,0.47
			s0.28-0.16,0.38-0.47l4.27-12.87c-1.59-0.15-3.38-0.22-5.36-0.22C1055.8,493.98,1054.37,494.02,1052.73,494.09z"/>
	</g>
	<path class="st1" d="M983.64,312.27c-9.42-4-21.3,2.47-27.53,14.57c-6.43-11.24-17.62-17.17-26.6-13.46
		c-9.79,4.05-13.34,18.07-8.22,31.7l-0.33,0l1.14,1.97c1.15,2.61,2.54,4.99,4.11,7.12l12.09,20.95l17.34,30.03l17.78-30.29
		l12.42-21.16c2.15-2.56,4.02-5.57,5.46-8.96C997.11,331.07,993.68,316.53,983.64,312.27z"/>
	<g>
		<g>
			<path class="st2" d="M916.83,347.39c3.22,0,3.22-5,0-5C913.62,342.39,913.61,347.39,916.83,347.39L916.83,347.39z"/>
		</g>
	</g>
	<g>
		<g>
			<path class="st2" d="M913.55,344.48c0.1,0.21,0.19,0.42,0.29,0.64c-0.08-0.2-0.17-0.4-0.25-0.6c0.63,1.51,1.07,3.09,1.29,4.72
				c-0.03-0.22-0.06-0.44-0.09-0.66c0.05,0.35,0.08,0.7,0.11,1.04c0.05,0.67,0.24,1.28,0.73,1.77c0.43,0.43,1.15,0.76,1.77,0.73
				c0.65-0.03,1.32-0.24,1.77-0.73c0.43-0.47,0.78-1.11,0.73-1.77c-0.11-1.33-0.3-2.65-0.64-3.94c-0.34-1.28-0.83-2.52-1.39-3.72
				c-0.25-0.54-0.94-1-1.49-1.15c-0.6-0.16-1.4-0.09-1.93,0.25c-0.53,0.34-1,0.86-1.15,1.49
				C913.14,343.24,913.26,343.84,913.55,344.48L913.55,344.48z"/>
		</g>
	</g>
	<g>
		<g>
			<path class="st2" d="M914.07,345.03c0.87,2.9,2.32,5.51,4.23,7.84c0.38,0.47,1.19,0.73,1.77,0.73c0.61,0,1.35-0.27,1.77-0.73
				c0.44-0.48,0.76-1.1,0.73-1.77c-0.03-0.7-0.29-1.23-0.73-1.77c-0.12-0.15-0.24-0.3-0.36-0.45c0.13,0.17,0.26,0.34,0.39,0.51
				c-1.02-1.33-1.86-2.77-2.52-4.31c0.08,0.2,0.17,0.4,0.25,0.6c-0.27-0.65-0.5-1.3-0.71-1.97c-0.18-0.61-0.59-1.17-1.15-1.49
				c-0.54-0.31-1.33-0.45-1.93-0.25C914.55,342.37,913.67,343.69,914.07,345.03L914.07,345.03z"/>
		</g>
	</g>
	<g>
		<g>
			<path class="st3" d="M924.03,351.19c0.05-0.83-0.49-1.46-0.93-2.09c-0.45-0.63-0.77-1.29-0.99-2.01
				c-0.08-0.26-0.32-0.46-0.6-0.46c-0.25,0-0.56,0.19-0.6,0.46c-0.17,1.05,0.22,2.01,0.86,2.83c0.55,0.72,1.28,1.32,1.75,2.06
				c0.07-0.29,0.15-0.57,0.22-0.86c0.02-0.01,0.04-0.02,0.07-0.03c0.11,0,0.22,0,0.33,0c0.07,0.02,0.13,0.06,0.16,0.12
				c0.02,0.04,0.02,0.02-0.02-0.03c0.02,0.08,0.01,0.01,0-0.03c-0.05-0.16-0.11-0.31-0.18-0.46c-0.1-0.24-0.23-0.46-0.38-0.67
				c-0.19-0.26-0.44-0.48-0.78-0.48c-0.43-0.01-0.71,0.29-0.75,0.71c-0.03,0.34,0.31,0.62,0.62,0.62c0.36,0,0.59-0.29,0.62-0.62
				c0-0.01,0-0.02,0-0.04c-0.03,0.11-0.06,0.21-0.09,0.32c0.01-0.01,0.01-0.02,0.02-0.03c-0.07,0.07-0.15,0.15-0.22,0.22
				c-0.11,0.02-0.22,0.04-0.34,0.06c-0.05-0.03-0.1-0.06-0.15-0.09c-0.03-0.04-0.03-0.04,0,0c0.01,0.02,0.03,0.04,0.04,0.06
				c0.05,0.08,0.11,0.17,0.15,0.25c0.11,0.2,0.16,0.32,0.23,0.53c0.17,0.52,0.72,1.08,1.29,0.68c0.27-0.18,0.42-0.55,0.22-0.86
				c-0.47-0.74-1.11-1.33-1.68-1.99c-0.25-0.29-0.48-0.61-0.64-0.98c-0.13-0.29-0.21-0.68-0.17-0.96c-0.4,0-0.8,0-1.21,0
				c0.23,0.75,0.55,1.47,0.98,2.12c0.2,0.3,0.42,0.57,0.62,0.87c0.05,0.08,0.1,0.16,0.15,0.24c0.01,0.01,0.09,0.17,0.05,0.1
				c0.08,0.2,0.08,0.24,0.07,0.44c-0.02,0.34,0.3,0.62,0.62,0.62C923.76,351.82,924.01,351.53,924.03,351.19L924.03,351.19z"/>
		</g>
	</g>
	<g>
		<g>
			<path class="st3" d="M919.52,344.45c0.38,0.68,0.47,1.47,0.68,2.21c0.23,0.82,0.71,1.49,1.09,2.24c0.66,1.32,0.98,2.79,2.08,3.85
				c0.58,0.56,1.46-0.32,0.88-0.88c-1.03-0.99-1.3-2.48-1.94-3.71c-0.37-0.7-0.77-1.31-0.97-2.09c-0.2-0.77-0.34-1.54-0.73-2.25
				C920.21,343.11,919.13,343.74,919.52,344.45L919.52,344.45z"/>
		</g>
	</g>
</g>
<g id="Nombre">
	<g>
	</g>
	<g>
	</g>
	<g>
		<path class="st4" d="M301.26,710.22v-4.92l3.5-0.23c2.83-0.16,4.61-0.64,5.33-1.46c0.72-0.82,1.14-3.59,1.25-8.32
			c0.27-9.64,0.41-20.08,0.41-31.32c0-5.97-0.03-12.76-0.09-20.37c-0.06-4.61-0.32-7.42-0.79-8.43c-0.23-0.51-0.66-0.92-1.29-1.23
			c-0.63-0.31-3.4-0.64-8.32-1v-4.92c4.72,0.12,9.34,0.18,13.87,0.18c5.27,0,10.34-0.06,15.21-0.18c2.11,4.96,4.3,9.88,6.56,14.75
			c1.6,3.47,8.69,18.21,21.28,44.21c13.3-26.7,22.61-46.35,27.93-58.96c4.68,0.2,9.12,0.29,13.33,0.29c4.95,0,9.72-0.1,14.32-0.29
			v4.92c-5.12,0.31-8.01,0.76-8.67,1.35c-0.66,0.59-1.09,2.38-1.29,5.39c-0.27,4.92-0.41,14.26-0.41,28.04
			c0,6.95,0.07,14.28,0.21,22.01c0.14,7.73,0.4,12.1,0.79,13.11c0.27,0.59,0.66,1.04,1.17,1.35c0.51,0.31,3.24,0.68,8.2,1.11v4.92
			c-6.33-0.27-11.97-0.41-16.93-0.41c-5,0-11.8,0.14-20.39,0.41v-4.92l3.46-0.12c2.73-0.12,4.44-0.5,5.13-1.14
			c0.68-0.64,1.12-2.34,1.32-5.1c0.19-2.75,0.29-9.24,0.29-19.47v-35.36c-6.02,12.07-13.71,27.9-23.05,47.47
			c-3.83,8.05-6.83,14.61-8.98,19.69h-3.85c-2.93-6.72-6.86-15.22-11.79-25.49l-20.29-41.67v7.96c0,22.01,0.1,37.18,0.29,45.49
			c0.12,3.36,0.57,5.43,1.35,6.21c0.78,0.78,3.69,1.29,8.73,1.52v4.92c-3.98-0.27-7.95-0.41-11.93-0.41
			C311.18,709.81,305.9,709.95,301.26,710.22z"/>
		<path class="st4" d="M471.31,700.45c3.67-0.2,5.94-0.57,6.8-1.11c0.59-0.39,1.5-1.88,2.75-4.45c2.38-5.08,5.43-12.13,9.14-21.15
			l20.74-50.8h8.61l26.48,62.93c3.44,7.94,5.56,12.29,6.36,13.05c0.8,0.76,3.27,1.27,7.41,1.54v5.33
			c-6.36-0.27-12.38-0.41-18.04-0.41c-6.75,0-13.18,0.14-19.27,0.41v-5.33c4.65-0.19,7.33-0.45,8.05-0.77
			c0.72-0.32,1.08-0.91,1.08-1.75c0-0.73-0.82-3.21-2.46-7.44l-3.87-9.79c-4.85-0.12-10.27-0.18-16.25-0.18
			c-5.2,0-9.94,0.06-14.2,0.18l-2.58,6.58c-0.7,1.79-1.56,4.46-2.58,8.01c-0.23,0.8-0.35,1.53-0.35,2.17c0,0.88,0.38,1.5,1.14,1.86
			c0.76,0.36,3.5,0.74,8.23,1.12v5.33c-3.83-0.27-8.59-0.41-14.29-0.41c-5.42,0-9.74,0.14-12.94,0.41V700.45z M509.75,643.59
			l-12.37,30.13c3.6,0.2,7.56,0.29,11.9,0.29c4.53,0,8.87-0.1,13.01-0.29L509.75,643.59z"/>
		<path class="st4" d="M664.47,676.95v-4.75c7.11,0.2,13.46,0.29,19.04,0.29c5.16,0,10.72-0.1,16.7-0.29v3.75
			c-1.72,0.55-3.36,1.19-4.92,1.93c-0.47,3.95-0.7,7.31-0.7,10.08c0,1.99,0.23,5.94,0.7,11.84c-7.73,2.79-14.21,4.67-19.42,5.66
			s-10.62,1.48-16.2,1.48c-15.08,0-26.89-3.92-35.42-11.75c-8.54-7.83-12.8-17.98-12.8-30.44c0-12.81,4.36-23.07,13.07-30.76
			c8.71-7.7,21.21-11.54,37.5-11.54c5.74,0,11.25,0.45,16.52,1.35c5.27,0.9,10.29,2.27,15.06,4.1l0.53,0.88
			c-1.13,4.96-1.97,11.13-2.52,18.52h-4.92c-0.04-3.71-0.29-6.99-0.76-9.84c-2.5-2.89-5.71-5.06-9.64-6.5
			c-3.93-1.44-8.56-2.17-13.92-2.17c-10.04,0-18.04,3.05-23.99,9.15c-5.96,6.1-8.94,14.44-8.94,25.04c0,11.3,3.13,20.4,9.4,27.3
			c6.27,6.9,13.99,10.35,23.17,10.35c4.88,0,10.08-1.19,15.59-3.57c0.31-3.01,0.47-5.86,0.47-8.55c0-6.01-0.35-9.34-1.05-9.96
			C676.3,677.91,672.12,677.38,664.47,676.95z"/>
		<path class="st4" d="M793.29,707.24c-14.41,0-25.45-3.7-33.11-11.1c-7.66-7.4-11.48-17.59-11.48-30.56
			c0-9.06,1.85-16.77,5.57-23.12c3.71-6.35,8.86-11.22,15.44-14.62c6.58-3.4,15.05-5.1,25.4-5.1c9.96,0,18.11,1.63,24.43,4.89
			c6.33,3.26,11.2,7.79,14.62,13.59c3.42,5.8,5.13,12.92,5.13,21.36c0,9.14-1.88,17.04-5.62,23.7c-3.75,6.66-9.03,11.82-15.85,15.47
			C811,705.41,802.82,707.24,793.29,707.24z M795.52,700.91c7.85,0,14.11-2.9,18.78-8.71c4.67-5.8,7-14.63,7-26.48
			c0-12.43-2.68-21.97-8.03-28.62c-4.34-5.36-11.02-8.03-20.04-8.03c-8.44,0-14.97,2.8-19.6,8.39c-4.63,5.59-6.94,14.19-6.94,25.8
			c0,8.37,1.27,15.45,3.81,21.26c2.54,5.81,5.77,9.99,9.7,12.55S789.23,700.91,795.52,700.91z"/>
		<path class="st4" d="M962.99,704.5v-4.92l3.5-0.23c2.83-0.16,4.61-0.64,5.33-1.46c0.72-0.82,1.13-3.59,1.25-8.32
			c0.27-9.64,0.41-20.08,0.41-31.32c0-5.97-0.03-12.76-0.09-20.37c-0.06-4.61-0.32-7.42-0.79-8.43c-0.23-0.51-0.67-0.92-1.29-1.23
			c-0.62-0.31-3.4-0.64-8.32-1v-4.92c4.72,0.12,9.34,0.18,13.87,0.18c5.27,0,10.34-0.06,15.21-0.18c2.11,4.96,4.3,9.88,6.57,14.75
			c1.6,3.47,8.69,18.21,21.28,44.21c13.3-26.7,22.61-46.35,27.93-58.96c4.68,0.2,9.12,0.29,13.33,0.29c4.95,0,9.72-0.1,14.32-0.29
			v4.92c-5.12,0.31-8.01,0.76-8.67,1.35c-0.67,0.59-1.09,2.38-1.29,5.39c-0.27,4.92-0.41,14.26-0.41,28.04
			c0,6.95,0.07,14.28,0.21,22.01c0.14,7.73,0.4,12.1,0.79,13.11c0.27,0.59,0.66,1.04,1.17,1.35c0.51,0.31,3.24,0.68,8.2,1.11v4.92
			c-6.33-0.27-11.97-0.41-16.93-0.41c-5,0-11.8,0.14-20.39,0.41v-4.92l3.46-0.12c2.73-0.12,4.44-0.5,5.13-1.14
			c0.68-0.64,1.12-2.34,1.32-5.1c0.2-2.75,0.29-9.24,0.29-19.47v-35.36c-6.02,12.07-13.71,27.9-23.05,47.47
			c-3.83,8.05-6.83,14.61-8.98,19.69h-3.85c-2.93-6.72-6.86-15.22-11.79-25.49l-20.3-41.67v7.96c0,22.01,0.1,37.18,0.29,45.49
			c0.12,3.36,0.57,5.43,1.35,6.21c0.78,0.78,3.69,1.29,8.73,1.52v4.92c-3.98-0.27-7.95-0.41-11.93-0.41
			C972.91,704.09,967.63,704.22,962.99,704.5z"/>
		<path class="st4" d="M1119.46,704.5v-4.92c5.36-0.27,8.39-0.72,9.09-1.35c0.7-0.62,1.13-2.17,1.28-4.63
			c0.31-5.16,0.47-14.77,0.47-28.83c0-5.39-0.08-13.2-0.23-23.44c-0.08-6.99-0.23-10.83-0.47-11.51c-0.23-0.68-0.64-1.18-1.23-1.49
			c-0.86-0.43-3.83-0.8-8.91-1.11v-4.92c8.05,0.27,14.2,0.41,18.46,0.41c7.34,0,13.98-0.14,19.92-0.41v4.92
			c-5.34,0.31-8.36,0.73-9.04,1.26c-0.69,0.53-1.13,1.75-1.33,3.66c-0.31,3.75-0.47,11.35-0.47,22.79c0,15.23,0.06,25.85,0.18,31.85
			c0.12,6,0.47,9.56,1.05,10.69c0.23,0.51,0.73,0.91,1.49,1.2s3.47,0.6,8.12,0.91v4.92l-6.91-0.18c-4.38-0.16-8.28-0.23-11.72-0.23
			L1119.46,704.5z"/>
		<path class="st4" d="M1205.91,704.5v-3.05c2.15-1.02,4.18-2.21,6.09-3.57c0.51-10.58,0.76-21.62,0.76-33.11
			c0-9.02-0.1-17.54-0.29-25.55c-0.12-5.7-0.39-8.98-0.82-9.84c-0.2-0.51-0.6-0.89-1.2-1.14c-0.61-0.25-3.45-0.59-8.53-1.03v-4.92
			c7.54,0.2,14.53,0.29,20.98,0.29c6.25,0,12.17-0.1,17.75-0.29v4.92c-5.36,0.35-8.45,0.82-9.27,1.41
			c-0.51,0.35-0.87,1.06-1.08,2.14c-0.21,1.08-0.38,7.39-0.5,18.96l-0.35,28.54c0,5.35,0.14,11.54,0.41,18.57
			c5.1,0.27,8.87,0.41,11.32,0.41c7.35,0,13.54-0.59,18.56-1.76c1.04-3.52,2.05-7.72,3.05-12.6h5.16
			c-0.88,5.7-1.66,12.77-2.34,21.21c-3.71,0.27-7.12,0.41-10.24,0.41l-21.19-0.27l-9.48-0.14
			C1220.33,704.05,1214.06,704.18,1205.91,704.5z"/>
		<path class="st4" d="M1327.34,704.5v-4.92c2.23,0,4.55-0.2,6.97-0.58c1.13-0.2,1.93-0.52,2.4-0.97c0.47-0.45,0.82-1.28,1.05-2.49
			c0.27-1.68,0.51-7.85,0.7-18.5c0.12-7.57,0.18-15.3,0.18-23.18c0-15.49-0.05-23.39-0.15-23.68s-1.48-0.44-4.14-0.44
			c-5.44,0-10.12,0.16-14.04,0.47c-2.27,0.2-3.55,0.39-3.85,0.59c-0.29,0.2-0.52,0.54-0.68,1.03c-0.16,0.49-0.49,3.92-1,10.28h-5.04
			c0.08-7.48-0.12-13.93-0.59-19.33l0.64-0.47c12.3,0.59,24.28,0.88,35.92,0.88c11.6,0,24.59-0.29,38.96-0.88l0.64,0.94
			c-0.74,5.37-1.27,11.66-1.58,18.86h-4.86c-0.35-6.58-0.7-10.15-1.05-10.71c-0.27-0.43-0.9-0.73-1.88-0.89
			c-3.13-0.51-9.34-0.77-18.63-0.77c-0.78,0-1.25,0.12-1.41,0.35c-0.16,0.27-0.23,1.31-0.23,3.11l-0.35,39.41
			c0,11.42,0.1,18.42,0.29,21.02c0.2,2.6,0.67,4.17,1.41,4.72c0.51,0.35,3.59,0.76,9.25,1.23v4.92c-5.75-0.27-11.85-0.41-18.31-0.41
			C1339.5,704.09,1332.62,704.22,1327.34,704.5z"/>
		<path class="st4" d="M1472.56,705.67c-14.41,0-25.45-3.7-33.11-11.1c-7.66-7.4-11.48-17.59-11.48-30.56
			c0-9.06,1.85-16.77,5.57-23.12c3.71-6.35,8.86-11.22,15.44-14.62c6.58-3.4,15.05-5.1,25.4-5.1c9.96,0,18.11,1.63,24.43,4.89
			c6.33,3.26,11.2,7.79,14.62,13.59c3.42,5.8,5.13,12.92,5.13,21.36c0,9.14-1.88,17.04-5.62,23.7c-3.75,6.66-9.03,11.82-15.85,15.47
			C1490.26,703.84,1482.09,705.67,1472.56,705.67z M1474.78,699.34c7.85,0,14.11-2.9,18.78-8.71c4.67-5.8,7-14.63,7-26.48
			c0-12.43-2.68-21.97-8.03-28.62c-4.34-5.36-11.02-8.03-20.04-8.03c-8.44,0-14.97,2.8-19.6,8.39c-4.63,5.59-6.94,14.19-6.94,25.8
			c0,8.37,1.27,15.45,3.81,21.26c2.54,5.81,5.77,9.99,9.7,12.55S1468.49,699.34,1474.78,699.34z"/>
		<path class="st4" d="M1563.28,704.5v-4.92c4.77-0.2,7.56-0.51,8.38-0.94c0.55-0.31,0.96-0.82,1.23-1.52
			c0.43-0.94,0.7-4.24,0.8-9.9c0.21-9.38,0.31-16.44,0.31-21.21l-0.12-24.79c0-6.56-0.21-10.35-0.64-11.37
			c-0.23-0.59-0.6-1.02-1.11-1.29c-0.78-0.47-3.73-0.92-8.86-1.35v-4.92c6.11,0.2,10.63,0.29,13.57,0.29c3.25,0,6.94-0.1,11.07-0.29
			c9.02,11.51,19.22,24,30.59,37.46c7.57,9.01,14.1,16.44,19.59,22.32v-23.26c0-8.81-0.1-16.41-0.29-22.79
			c-0.16-3.8-0.47-6.13-0.94-6.99c-0.23-0.47-0.67-0.8-1.29-1c-0.62-0.2-3.36-0.47-8.2-0.82v-4.92c4.25,0.2,8.48,0.29,12.69,0.29
			c5.77,0,10.99-0.1,15.67-0.29v4.92c-4.35,0.27-6.97,0.59-7.87,0.94c-0.51,0.2-0.91,0.47-1.22,0.82s-0.54,0.8-0.7,1.35
			c-0.27,0.94-0.43,3.95-0.48,9.02l-0.22,23.44l-0.12,23.61c0,6.33,0.14,12.66,0.41,18.98l-0.77,0.82c-4.75-0.86-8.1-1.43-10.07-1.7
			c-10.04-11.12-22.17-25.1-36.39-41.92c-7.19-8.51-12.99-15.67-17.41-21.49v22.77c0,6.21,0.1,13.68,0.29,22.42
			c0.12,6.44,0.39,10.15,0.82,11.12c0.16,0.43,0.45,0.76,0.88,1c0.74,0.43,3.55,0.82,8.44,1.17v4.92
			c-6.3-0.27-10.81-0.41-13.54-0.41C1575.55,704.09,1570.71,704.22,1563.28,704.5z"/>
	</g>
	<g>
		<rect x="860.78" y="651.98" class="st5" width="79.03" height="0"/>
	</g>
	<g>
		<rect x="976.58" y="656.57" class="st5" width="41.36" height="0"/>
	</g>
	<g>
		<rect x="1232.41" y="635.13" class="st5" width="4.6" height="0"/>
	</g>
</g>
<g id="micro">
	<g>
		<g>
			<path class="st6" d="M803.17,141.79l-3.04,0.64c-7,1.47-13.92-3.06-15.39-10.06l-5.04-24.03c-1.47-7,3.06-13.92,10.06-15.39
				l3.04-0.64c7-1.47,13.92,3.06,15.39,10.06l5.04,24.03C814.7,133.4,810.17,140.33,803.17,141.79z"/>
			<path class="st6" d="M817.07,125.97c0.81,8.78-5.47,17.06-14.81,19.02c-9.33,1.96-18.41-3.11-21.2-11.47l-5.17,1.08
				c3.31,11.48,15.39,18.56,27.79,15.96c12.4-2.6,20.62-13.93,19.05-25.77L817.07,125.97z"/>
		</g>
		
			<rect x="797.13" y="160.09" transform="matrix(0.9787 -0.2051 0.2051 0.9787 -16.0907 168.6712)" class="st6" width="17.11" height="3.74"/>
		
			<rect x="801.77" y="147.53" transform="matrix(0.9787 -0.2051 0.2051 0.9787 -14.4276 168.1112)" class="st6" width="4.09" height="12.26"/>
	</g>
</g>
<g id="q_x3C_3">
	<path class="st1" d="M1170.75,123.06c-3.69-3.29-10.15-2.62-14.91,1.4c-1.18-5.83-5.38-10.24-10.08-10.22
		c-5.13,0.02-8.96,5.31-8.75,11.91l-0.15-0.06l0.21,1.02c0.12,1.29,0.38,2.53,0.77,3.7l2.25,10.88l3.23,15.6l12.92-9.68l9.02-6.76
		c1.39-0.71,2.72-1.65,3.91-2.83C1173.97,133.27,1174.68,126.58,1170.75,123.06z"/>
	<path class="st6" d="M1131.61,94.73l-6.36-2.38c-6.59-2.46-14.3,1.75-17.15,9.36l-10.85,29c-2.85,7.61,0.21,15.85,6.8,18.31
		l6.36,2.38c6.59,2.46,14.3-1.75,17.15-9.36l10.85-29C1141.26,105.44,1138.2,97.19,1131.61,94.73z M1126.13,136.79
		c-2.85,7.61-10.56,11.82-17.15,9.36l0,0c-6.59-2.46-9.65-10.7-6.8-18.31l7.4-19.79c2.85-7.61,10.56-11.82,17.15-9.36v0
		c6.59,2.46,9.65,10.7,6.8,18.31L1126.13,136.79z"/>
	<g>
		<g>
			<path class="st2" d="M1093.42,128.56c7.02-1.67,13.86,1.49,18.77,6.42c2.47,2.48,4.5,5.32,6.3,8.32c1.8,3.01,3.35,6.36,6.01,8.75
				c3.2,2.87,7.8,3.91,11.62,1.62c2.76-1.65,0.25-5.98-2.52-4.32c-2.69,1.61-5.45-0.33-7.1-2.5c-2.07-2.71-3.47-5.92-5.39-8.75
				c-4.06-6-9.36-11.28-16.32-13.72c-4.08-1.43-8.49-1.63-12.69-0.63C1088.96,124.49,1090.29,129.31,1093.42,128.56L1093.42,128.56z
				"/>
		</g>
	</g>
</g>
<g id="caras">
	<g>
		<path class="st2" d="M782.01,537.89c3.02-1.62,4.37-4.33,4.38-6.13l-11.82,6.41C776.29,539.4,779.39,539.38,782.01,537.89z"/>
		<path class="st2" d="M788.19,501.54c-1.86-3.47-6.18-4.52-8.91-1.53c-7.7,8.66-16.46,13.11-25.77,14.48
			c-3.8,0.57-5.66,4.91-3.75,8.53l6.14,12.19c7.95,15.52,24.7,19.41,31.63,20.27c0.76,0.08,1.48,0.01,2.15-0.2
			c1.34-0.43,2.35-1.41,3.09-2.79c1.04-2.29,2.59-5.72,3.73-9.99C801.55,523.79,794.97,514.83,788.19,501.54z M764.2,530.75
			c-0.16,0.87-1.05,1.32-1.78,0.9c-0.68-0.27-1.23-1.07-1.07-1.94c1.05-4.08,5.18-6.39,9.02-5.02c0.81,0.23,1.23,1.07,1.07,1.94
			c-0.21,0.72-1.05,1.32-1.73,1.05C767.37,526.8,764.83,528.11,764.2,530.75z M783.36,540.71c-5.16,2.8-10.34,1.37-12.24-2.25
			c-0.37-0.69-0.12-1.75,0.5-2.12l14.8-8.18c0.62-0.36,1.61-0.03,1.99,0.66C790.4,532.74,788.11,538.04,783.36,540.71z
			 M780.73,521.52c-0.16,0.87-1.1,1.17-1.78,0.9c-0.81-0.23-1.23-1.07-1.07-1.94c1.14-4.27,5.18-6.39,9.02-5.02
			c0.81,0.23,1.23,1.07,0.93,1.98c-0.21,0.72-0.92,1.27-1.73,1.05C783.94,517.72,781.41,519.03,780.73,521.52z"/>
		<path class="st2" d="M802.62,488.11c-8.93,4.83-18.65,5.84-29.51,3.3c-3.7-0.93-6.91,2.39-6.35,6.44l1.17,7.77
			c3.42-2.24,6.42-4.83,9.1-7.98c1.15-1.02,2.26-1.7,3.6-2.13c3.75-1.21,8.04,0.67,10.09,4.73c6.18,12.34,7.38,14.23,8.14,16.59
			l1.83-0.26c0.72-0.07,1.49,0.5,1.64,1.43c0.35,2-0.33,4.01-1.74,5.61c0.95,5.72,0.65,11.19-0.56,16.62
			c5.47-5.5,15.26-17.77,12.73-33.89l-2.12-13.48C810.04,488.65,805.91,486.4,802.62,488.11z M805.43,507.39
			c-0.39,0.61-1.38,0.77-2.02,0.16c-2-1.64-4.87-1.36-6.27,0.71c-0.39,0.61-1.38,0.77-2.02,0.16c-0.64-0.61-0.79-1.54-0.26-2.19
			c2.32-3.35,6.97-4.03,10.25-1.18C805.81,505.81,805.96,506.74,805.43,507.39z"/>
	</g>
</g>
<g id="camara">
	<g>
		<polygon class="st2" points="1159.84,548.44 1101.95,523.53 1113.5,497.6 1171.38,522.51 		"/>
		<polygon class="st2" points="1180.32,529.64 1175.77,539.85 1171.23,550.06 1163.56,540.68 1155.88,531.29 1168.1,530.46 		"/>
		
			<ellipse transform="matrix(0.3497 -0.9368 0.9368 0.3497 272.8229 1381.2063)" class="st2" cx="1131.39" cy="494.07" rx="13.32" ry="14.92"/>
		
			<ellipse transform="matrix(0.3497 -0.9368 0.9368 0.3497 280.4771 1415.2062)" class="st2" cx="1159.71" cy="505.56" rx="13.32" ry="14.92"/>
		<path class="st2" d="M1102.53,551.81L1102.53,551.81c0.43,0.53,1.23,0.67,1.78,0.31l26.31-17.32c0.55-0.36,0.64-1.09,0.21-1.62
			l0,0c-0.43-0.53-1.23-0.67-1.78-0.31l-26.31,17.32C1102.18,550.55,1102.09,551.28,1102.53,551.81z"/>
		<path class="st2" d="M1134.59,565.01L1134.59,565.01c0.68-0.07,1.14-0.65,1.01-1.29l-6.33-30.63c-0.13-0.64-0.8-1.1-1.48-1.02l0,0
			c-0.68,0.07-1.14,0.65-1.01,1.29l6.33,30.63C1133.24,564.62,1133.91,565.08,1134.59,565.01z"/>
	</g>
	<g>
	</g>
	<g>
	</g>
	<g>
	</g>
	<g>
	</g>
	<g>
	</g>
	<g>
	</g>
</g>
</svg>
